<svg xmlns="http://www.w3.org/2000/svg" width="100" height="14" viewBox="0 0 100 14">
    <g fill="none" fill-rule="evenodd">
        <g fill="#161616">
            <g>
                <g>
                    <path d="M88.334 0h11.665v2.557l-6.701 8.132h6.701V14H88.334v-2.557l6.685-8.132h-6.685V0zm-7.067 14H84.8V0h-3.533v14zM65.419 0h3.046l5.756 7.465V0h3.512v14h-2.848l-5.954-7.72V14h-3.512V0zM54.653 5.281V3.33h7.232V0H51.12v14h10.765v-3.33h-7.232V8.61h6.332V5.282h-6.332zM24.319 0h3.532v10.635h6.334V14H24.32V0zm16.933 0h-3.533v14h9.867v-3.365h-6.334V0zm-24 14h3.533V0H17.25v14zM3.388 0H0v14h3.511V6.497l2.92 4.392h.784l2.956-4.434V14h3.547V0h-3.389L6.86 5.419 3.39 0z" transform="translate(-446 -324) translate(86 291) translate(360 33)"/>
                </g>
            </g>
        </g>
    </g>
</svg>
