<svg xmlns="http://www.w3.org/2000/svg" width="24" height="24" viewBox="0 0 24 24">
    <g fill="none" fill-rule="evenodd">
        <g fill="#FFF">
            <g>
                <path d="M12 4.1c.459 0 .837.343.893.787L12.9 5v6.1H19c.497 0 .9.403.9.9 0 .459-.343.837-.787.893L19 12.9h-6.1V19c0 .497-.403.9-.9.9-.459 0-.837-.343-.893-.787L11.1 19v-6.1H5c-.497 0-.9-.403-.9-.9 0-.459.343-.837.787-.893L5 11.1h6.1V5c0-.497.403-.9.9-.9z" transform="translate(-2172 -413) translate(2172 413)"/>
            </g>
        </g>
    </g>
</svg>
