<svg xmlns="http://www.w3.org/2000/svg" width="24" height="24" viewBox="0 0 24 24">
    <g fill="none" fill-rule="evenodd">
        <g fill="#161616">
            <g>
                <g>
                    <path d="M18.364 8.364c.351-.352.92-.352 1.272 0 .323.322.35.827.08 1.18l-.08.092-6 6c-.322.323-.827.35-1.18.08l-.092-.08-6-6c-.352-.351-.352-.92 0-1.272.322-.323.827-.35 1.18-.08l.092.08L13 13.727l5.364-5.363z" transform="translate(-1088 -2183) translate(808 2179) translate(280 4) matrix(0 1 1 0 1 -1)"/>
                </g>
            </g>
        </g>
    </g>
</svg>
