<svg xmlns="http://www.w3.org/2000/svg" width="24" height="24" viewBox="0 0 24 24">
    <g fill="none" fill-rule="evenodd">
        <g fill="#D32F2F">
            <g>
                <path d="M12 2.5c5.247 0 9.5 4.253 9.5 9.5s-4.253 9.5-9.5 9.5-9.5-4.253-9.5-9.5S6.753 2.5 12 2.5zm0 1.8c-4.253 0-7.7 3.447-7.7 7.7s3.447 7.7 7.7 7.7 7.7-3.447 7.7-7.7-3.447-7.7-7.7-7.7zm0 10.703c.497 0 .9.402.9.9 0 .497-.403.9-.9.9s-.9-.403-.9-.9c0-.498.403-.9.9-.9zm0-7.806c.459 0 .837.344.893.788l.007.112v5.006c0 .497-.403.9-.9.9-.459 0-.837-.344-.893-.788l-.007-.112V8.097c0-.497.403-.9.9-.9z" transform="translate(-1146 -253) translate(1146 253)"/>
            </g>
        </g>
    </g>
</svg>
