<svg xmlns="http://www.w3.org/2000/svg" width="18" height="18" viewBox="0 0 18 18">
    <g fill="none" fill-rule="evenodd">
        <g fill="#C1C1C1">
            <g>
                <g>
                    <path d="M3.5 1.963c.459 0 .837.343.893.787l.007.113v.601c1.168-.908 2.614-1.427 4.147-1.427 3.79 0 6.853 3.14 6.853 7 0 3.862-3.063 7-6.853 7-1.846 0-3.576-.75-4.853-2.058-.315-.323-.6-.677-.847-1.056-.272-.416-.156-.974.26-1.246.416-.272.974-.155 1.246.26.184.282.395.545.63.785.942.966 2.21 1.515 3.564 1.515 2.786 0 5.053-2.323 5.053-5.2 0-2.876-2.267-5.2-5.053-5.2-1.132 0-2.2.387-3.063 1.064h.955c.459 0 .838.344.893.788l.007.113c0 .459-.343.837-.787.893l-.113.007H3.483c-.025 0-.05-.001-.076-.004l.093.004c-.044 0-.087-.003-.13-.01-.024-.002-.049-.007-.074-.013l-.03-.008c-.024-.006-.047-.013-.07-.021l-.039-.016c-.02-.007-.039-.016-.058-.026l-.042-.022-.027-.016-.028-.018-.035-.025.063.043c-.04-.025-.08-.053-.115-.084l-.027-.025c-.047-.042-.087-.088-.123-.138l-.012-.02c-.016-.022-.03-.044-.042-.068l-.017-.032c-.01-.019-.019-.039-.027-.06l-.018-.048-.015-.047-.014-.058-.01-.054-.003-.021-.002-.02c-.003-.026-.005-.052-.005-.077V2.862c0-.497.403-.9.9-.9z" transform="translate(-495 -248) translate(360 247) translate(135 1)"/>
                </g>
            </g>
        </g>
    </g>
</svg>
