<svg xmlns="http://www.w3.org/2000/svg" width="24" height="25" viewBox="0 0 24 25">
    <g fill="none" fill-rule="evenodd">
        <g fill="#161616">
            <g>
                <g>
                    <path d="M10.697 6.303c.322.322.349.828.08 1.18l-.08.093L7.17 11.1H19c.497 0 .9.403.9.9 0 .459-.343.837-.787.893L19 12.9H7.171l3.526 3.524c.322.322.349.828.08 1.18l-.08.093c-.322.322-.828.349-1.18.08l-.093-.08-5.06-5.06-.015-.015-.05-.058.065.072c-.033-.033-.063-.068-.09-.104-.016-.021-.03-.043-.044-.066l-.017-.03-.03-.056c-.022-.05-.04-.1-.054-.152-.02-.077-.029-.152-.029-.228 0-.116.022-.227.062-.328.007-.02.015-.038.024-.057.008-.017.016-.033.025-.048l.025-.042c.012-.02.025-.039.038-.057l.01-.012.015-.02c.016-.02.033-.04.05-.058l.015-.014 5.06-5.06c.352-.352.921-.352 1.273 0z" transform="translate(-1824 -2395) translate(1816 2387) translate(8 8.5) matrix(0 1 1 0 0 0)"/>
                </g>
            </g>
        </g>
    </g>
</svg>
