<svg xmlns="http://www.w3.org/2000/svg" width="24" height="24" viewBox="0 0 24 24">
    <g fill="none" fill-rule="evenodd">
        <g fill="#161616">
            <g>
                <path d="M18.647 5.353c.322.322.349.828.08 1.18l-.08.093L13.273 12l5.374 5.374c.351.351.351.921 0 1.273-.322.322-.828.349-1.18.08l-.093-.08L12 13.273l-5.374 5.374c-.351.351-.921.351-1.273 0-.322-.322-.349-.828-.08-1.18l.08-.093L10.727 12 5.353 6.626c-.351-.351-.351-.921 0-1.273.322-.322.828-.349 1.18-.08l.093.08L12 10.727l5.374-5.374c.351-.351.921-.351 1.273 0z" transform="translate(-2281 -492) translate(2281 492)"/>
            </g>
        </g>
    </g>
</svg>
