<svg xmlns="http://www.w3.org/2000/svg" width="24" height="24" viewBox="0 0 24 24">
    <g fill="none" fill-rule="evenodd">
        <g fill="#C1C1C1">
            <g>
                <path d="M19.621 4.007l.919.92L5.473 19.992l-.919-.92L6.629 17c-1.724-1.054-3.197-2.602-4.276-4.507l-.192-.35L2 11.84l.161-.304c2.103-3.964 5.81-6.396 9.834-6.396 1.788 0 3.543.483 5.104 1.39l.016-.017.02-.02.065-.065.581-.58.226-.227.061-.061.338-.338.307-.306.71-.71.198-.198zm-.4 4.079c.932.867 1.725 1.893 2.392 3.056l.216.392.163.305-.163.306c-2.109 3.964-5.813 6.395-9.834 6.395-.828 0-1.65-.104-2.452-.306-.123-.032-.246-.065-.368-.1l.09-.09.288-.29.15-.148 2.533-2.535 1.71-1.71.503-.503.5-.5 2.51-2.51.872-.873.608-.608.257-.257.024-.024zM12 8.138c-.987 0-1.92.387-2.619 1.086-.698.699-1.084 1.63-1.084 2.62 0 .938.347 1.825.98 2.511l.71-.708-.032-.035c-.427-.492-.658-1.111-.658-1.769 0-.723.28-1.4.791-1.912.512-.512 1.19-.793 1.913-.793.672 0 1.306.243 1.803.69l.707-.707-.056-.053c-.678-.6-1.542-.93-2.454-.93z" transform="translate(-1147 -322) translate(1147 322)"/>
            </g>
        </g>
    </g>
</svg>
