<svg xmlns="http://www.w3.org/2000/svg" width="24" height="24" viewBox="0 0 24 24">
    <g fill="none" fill-rule="evenodd">
        <g fill="#E94757">
            <g>
                <path d="M16 3.1c2.706 0 4.9 2.194 4.9 4.9v8c0 2.706-2.194 4.9-4.9 4.9H8c-2.706 0-4.9-2.194-4.9-4.9V8c0-2.706 2.194-4.9 4.9-4.9zm.414 5.967c-.35-.352-.92-.354-1.273-.003l-3.988 3.963L8.86 10.74l-.092-.08c-.353-.268-.859-.24-1.18.082-.352.352-.351.922.001 1.273l2.928 2.92.092.08c.352.268.856.242 1.178-.079l4.623-4.596.08-.092c.27-.352.245-.857-.076-1.18z" transform="translate(-775 -704) translate(775 704)"/>
            </g>
        </g>
    </g>
</svg>
