<svg xmlns="http://www.w3.org/2000/svg" width="24" height="24" viewBox="0 0 24 24">
    <g fill="none" fill-rule="evenodd">
        <g fill="#A5A5A5">
            <g>
                <g>
                    <path d="M12 2.5c5.247 0 9.5 4.253 9.5 9.5s-4.253 9.5-9.5 9.5-9.5-4.253-9.5-9.5S6.753 2.5 12 2.5zm0 1.8c-4.253 0-7.7 3.447-7.7 7.7s3.447 7.7 7.7 7.7 7.7-3.447 7.7-7.7-3.447-7.7-7.7-7.7zm0 5.7c.459 0 .837.343.893.787l.007.113v5.005c0 .497-.403.9-.9.9-.459 0-.837-.343-.893-.787l-.007-.113V10.9c0-.497.403-.9.9-.9zm0-2.803c.497 0 .9.403.9.9 0 .498-.403.9-.9.9s-.9-.402-.9-.9c0-.497.403-.9.9-.9z" transform="translate(-587 -778) translate(376 749) translate(211 29)"/>
                </g>
            </g>
        </g>
    </g>
</svg>
