<svg xmlns="http://www.w3.org/2000/svg" width="18" height="18" viewBox="0 0 18 18">
    <g fill="none" fill-rule="evenodd">
        <g fill="#543DAB">
            <g>
                <g>
                    <path d="M13.662 6.214c.351-.351.921-.351 1.273 0 .322.323.349.828.08 1.181l-.08.092-4.299 4.299c-.322.322-.827.349-1.18.08l-.092-.08-4.299-4.299c-.351-.351-.351-.921 0-1.273.323-.322.828-.349 1.181-.08l.092.08L10 9.876l3.662-3.662z" transform="translate(-560 -2724) translate(448 2720) translate(112 4) matrix(0 1 1 0 1 -1)"/>
                </g>
            </g>
        </g>
    </g>
</svg>
