<svg xmlns="http://www.w3.org/2000/svg" width="18" height="18" viewBox="0 0 18 18">
    <defs>
        <linearGradient id="waqpvrs0ha" x1="0%" x2="100%" y1="0%" y2="100%">
            <stop offset="0%" stop-color="#E94657"/>
            <stop offset="100%" stop-color="#EC6C60"/>
        </linearGradient>
    </defs>
    <g fill="none" fill-rule="evenodd">
        <g fill="url(#waqpvrs0ha)" transform="translate(-3 -3)">
            <path d="M15.9 3c2.706 0 4.9 2.194 4.9 4.9v8c0 2.706-2.194 4.9-4.9 4.9h-8c-2.706 0-4.9-2.194-4.9-4.9v-8C3 5.194 5.194 3 7.9 3zm.414 5.967c-.35-.352-.92-.354-1.273-.003l-3.988 3.963L8.76 10.64l-.092-.08c-.353-.268-.859-.24-1.18.082-.352.352-.351.922.001 1.273l2.928 2.92.092.08c.352.268.856.242 1.178-.079l4.623-4.596.08-.092c.27-.352.245-.857-.076-1.18z"/>
        </g>
    </g>
</svg>
