<?xml version="1.0" encoding="UTF-8"?>
<svg width="115px" height="16px" viewBox="0 0 115 16" version="1.1" xmlns="http://www.w3.org/2000/svg" xmlns:xlink="http://www.w3.org/1999/xlink">
    <title>A89148FA-73EF-4629-B8BF-D6D244C6CAE6</title>
    <g id="UI-Design" stroke="none" stroke-width="1" fill="none" fill-rule="evenodd">
        <g id="Main-Page" transform="translate(-40.000000, -32.000000)" fill="#161616">
            <g id="Logo/Type-Logo/Black" transform="translate(40.000000, 32.000000)">
                <path d="M100.953143,0 L114.284952,0 L114.284952,2.92266667 L106.626286,12.215619 L114.284952,12.215619 L114.284952,16 L100.953143,16 L100.953143,13.0780952 L108.593524,3.78438095 L100.953143,3.78438095 L100.953143,0 Z M92.8761905,16 L96.9142857,16 L96.9142857,0 L92.8761905,0 L92.8761905,16 Z M74.7649524,0 L78.2453333,0 L84.824381,8.53180952 L84.824381,0 L88.8373333,0 L88.8373333,16 L85.5832381,16 L78.7779048,7.17790476 L78.7779048,16 L74.7649524,16 L74.7649524,0 Z M62.4601905,6.03580952 L62.4601905,3.80495238 L70.7260952,3.80495238 L70.7260952,0 L58.4228571,0 L58.4228571,16 L70.7260952,16 L70.7260952,12.1950476 L62.4601905,12.1950476 L62.4601905,9.8407619 L69.6975238,9.8407619 L69.6975238,6.03580952 L62.4601905,6.03580952 Z M27.7927619,0 L31.8300952,0 L31.8300952,12.1539048 L39.0689524,12.1539048 L39.0689524,16 L27.7927619,16 L27.7927619,0 Z M47.1451429,0 L43.1070476,0 L43.1070476,16 L54.384,16 L54.384,12.1539048 L47.1451429,12.1539048 L47.1451429,0 Z M19.7158095,16 L23.7539048,16 L23.7539048,0 L19.7158095,0 L19.7158095,16 Z M3.8727619,0 L1.08273179e-14,0 L1.08273179e-14,16 L4.01295238,16 L4.01295238,7.4247619 L7.34933333,12.4449524 L8.24533333,12.4449524 L11.623619,7.3767619 L11.623619,16 L15.6777143,16 L15.6777143,0 L11.8049524,0 L7.8392381,6.1927619 L3.8727619,0 Z" id="Type-Logo"></path>
            </g>
        </g>
    </g>
</svg>