<?xml version="1.0" encoding="UTF-8"?>
<svg width="24px" height="24px" viewBox="0 0 24 24" version="1.1" xmlns="http://www.w3.org/2000/svg" xmlns:xlink="http://www.w3.org/1999/xlink">
    <title>6521D36E-B9D9-4680-9382-87B42DD50DD1</title>
    <g id="UI-Design" stroke="none" stroke-width="1" fill="none" fill-rule="evenodd">
        <g id="상세페이지-(2-+GUI)" transform="translate(-729.000000, -281.000000)" fill="#EBEBEB">
            <g id="Profile" transform="translate(376.000000, 195.000000)">
                <g id="Group" transform="translate(100.000000, 40.000000)">
                    <g id="sns-btn" transform="translate(249.000000, 42.000000)">
                        <g id="Icon/Outline/Youtube" transform="translate(4.000000, 4.000000)">
                            <path d="M17.5402159,4.83830523 C19.6941264,4.83830523 21.4402159,6.5843947 21.4402159,8.73830523 L21.4402159,8.73830523 L21.4402159,15.2616948 C21.4402159,17.4156053 19.6941264,19.1616948 17.5402159,19.1616948 L17.5402159,19.1616948 L6.45978414,19.1616948 C4.30587362,19.1616948 2.55978414,17.4156053 2.55978414,15.2616948 L2.55978414,15.2616948 L2.55978414,8.73830523 C2.55978414,6.5843947 4.30587362,4.83830523 6.45978414,4.83830523 L6.45978414,4.83830523 Z M17.5402159,6.63830523 L6.45978414,6.63830523 C5.29998617,6.63830523 4.35978414,7.57850725 4.35978414,8.73830523 L4.35978414,8.73830523 L4.35978414,15.2616948 C4.35978414,16.4214927 5.29998617,17.3616948 6.45978414,17.3616948 L6.45978414,17.3616948 L17.5402159,17.3616948 C18.7000138,17.3616948 19.6402159,16.4214927 19.6402159,15.2616948 L19.6402159,15.2616948 L19.6402159,8.73830523 C19.6402159,7.57850725 18.7000138,6.63830523 17.5402159,6.63830523 L17.5402159,6.63830523 Z M9.8058317,9.51858867 C9.8058317,8.80843749 10.5898078,8.37803918 11.1889633,8.75925745 L11.1889633,8.75925745 L15.0889633,11.2406688 C15.6447878,11.5943174 15.6447878,12.4056826 15.0889633,12.7593312 L15.0889633,12.7593312 L11.1889633,15.2407425 C10.5898078,15.6219608 9.8058317,15.1915625 9.8058317,14.4814113 L9.8058317,14.4814113 Z M11.6068317,11.1581683 L11.6068317,12.8411683 L12.9288317,11.9991683 L11.6068317,11.1581683 Z" id="Fill"></path>
                        </g>
                    </g>
                </g>
            </g>
        </g>
    </g>
</svg>