<svg xmlns="http://www.w3.org/2000/svg" width="24" height="24" viewBox="0 0 24 24">
    <g fill="none" fill-rule="evenodd">
        <g fill="#161616">
            <g>
                <g>
                    <g>
                        <g>
                            <path d="M17.54 4.838c2.154 0 3.9 1.746 3.9 3.9v6.524c0 2.154-1.746 3.9-3.9 3.9H6.46c-2.154 0-3.9-1.746-3.9-3.9V8.738c0-2.154 1.746-3.9 3.9-3.9zm0 1.8H6.46c-1.16 0-2.1.94-2.1 2.1v6.524c0 1.16.94 2.1 2.1 2.1h11.08c1.16 0 2.1-.94 2.1-2.1V8.738c0-1.16-.94-2.1-2.1-2.1zm-7.734 2.88c0-.71.784-1.14 1.383-.759l3.9 2.482c.556.353.556 1.165 0 1.518l-3.9 2.482c-.6.381-1.383-.05-1.383-.76zm1.8 1.64v1.683L12.93 12l-1.322-.84z" transform="translate(-925 -297) translate(376 211) translate(296 40) translate(249 42) translate(4 4)"/>
                        </g>
                    </g>
                </g>
            </g>
        </g>
    </g>
</svg>
