<?xml version="1.0" encoding="UTF-8"?>
<svg width="24px" height="24px" viewBox="0 0 24 24" version="1.1" xmlns="http://www.w3.org/2000/svg" xmlns:xlink="http://www.w3.org/1999/xlink">
    <title>858E28B9-2FA3-4C4A-8559-69B9A191E0F0</title>
    <g id="UI-Design" stroke="none" stroke-width="1" fill="none" fill-rule="evenodd">
        <g id="상세페이지-(2-+GUI)" transform="translate(-689.000000, -281.000000)" fill="#EBEBEB">
            <g id="Profile" transform="translate(376.000000, 195.000000)">
                <g id="Group" transform="translate(100.000000, 40.000000)">
                    <g id="sns-btn" transform="translate(209.000000, 42.000000)">
                        <g id="Icon/Outline/Instagram" transform="translate(4.000000, 4.000000)">
                            <path d="M16,3.1 C18.7061953,3.1 20.9,5.29380473 20.9,8 L20.9,8 L20.9,16 C20.9,18.7061953 18.7061953,20.9 16,20.9 L16,20.9 L8,20.9 C5.29380473,20.9 3.1,18.7061953 3.1,16 L3.1,16 L3.1,8 C3.1,5.29380473 5.29380473,3.1 8,3.1 L8,3.1 Z M16,4.9 L8,4.9 C6.28791728,4.9 4.9,6.28791728 4.9,8 L4.9,8 L4.9,16 C4.9,17.7120827 6.28791728,19.1 8,19.1 L8,19.1 L16,19.1 C17.7120827,19.1 19.1,17.7120827 19.1,16 L19.1,16 L19.1,8 C19.1,6.28791728 17.7120827,4.9 16,4.9 L16,4.9 Z M12,7.42570794 C14.5263117,7.42570794 16.5742921,9.47368826 16.5742921,12 C16.5742921,14.5263117 14.5263117,16.5742921 12,16.5742921 C9.47368826,16.5742921 7.42570794,14.5263117 7.42570794,12 C7.42570794,9.47368826 9.47368826,7.42570794 12,7.42570794 Z M12,9.22570794 C10.4678008,9.22570794 9.22570794,10.4678008 9.22570794,12 C9.22570794,13.5321992 10.4678008,14.7742921 12,14.7742921 C13.5321992,14.7742921 14.7742921,13.5321992 14.7742921,12 C14.7742921,10.4678008 13.5321992,9.22570794 12,9.22570794 Z M16.5742566,6.52577876 C17.0712934,6.52577876 17.4742212,6.92870663 17.4742212,7.42574335 C17.4742212,7.92278007 17.0712934,8.32570794 16.5742566,8.32570794 C16.0772199,8.32570794 15.6742921,7.92278007 15.6742921,7.42574335 C15.6742921,6.92870663 16.0772199,6.52577876 16.5742566,6.52577876 Z" id="Fill"></path>
                        </g>
                    </g>
                </g>
            </g>
        </g>
    </g>
</svg>