<svg xmlns="http://www.w3.org/2000/svg" width="46" height="46" viewBox="0 0 46 46">
    <defs>
        <linearGradient id="4ds5a31kwa" x1="100%" x2="0%" y1="0%" y2="100%">
            <stop offset="0%" stop-color="#6C52A3"/>
            <stop offset="48.741%" stop-color="#E70D5C"/>
            <stop offset="100%" stop-color="#FFA53C"/>
        </linearGradient>
    </defs>
    <g fill="none" fill-rule="evenodd">
        <g>
            <g>
                <g transform="translate(-1259 -301) translate(376 252) translate(884 50)">
                    <circle cx="22" cy="22" r="22" stroke="url(#4ds5a31kwa)" stroke-linejoin="round"/>
                    <path fill="url(#4ds5a31kwa)" d="M26 13.1c2.706 0 4.9 2.194 4.9 4.9v8c0 2.706-2.194 4.9-4.9 4.9h-8c-2.706 0-4.9-2.194-4.9-4.9v-8c0-2.706 2.194-4.9 4.9-4.9zm0 1.8h-8c-1.712 0-3.1 1.388-3.1 3.1v8c0 1.712 1.388 3.1 3.1 3.1h8c1.712 0 3.1-1.388 3.1-3.1v-8c0-1.712-1.388-3.1-3.1-3.1zm-4 2.526c2.526 0 4.574 2.048 4.574 4.574S24.526 26.574 22 26.574 17.426 24.526 17.426 22s2.048-4.574 4.574-4.574zm0 1.8c-1.532 0-2.774 1.242-2.774 2.774s1.242 2.774 2.774 2.774 2.774-1.242 2.774-2.774-1.242-2.774-2.774-2.774zm4.574-2.7c.497 0 .9.403.9.9s-.403.9-.9.9-.9-.403-.9-.9.403-.9.9-.9z"/>
                </g>
            </g>
        </g>
    </g>
</svg>
