<svg xmlns="http://www.w3.org/2000/svg" width="24" height="24" viewBox="0 0 24 24">
    <g fill="none" fill-rule="evenodd">
        <g fill="#161616">
            <g>
                <g>
                    <path d="M12 2.5c5.247 0 9.5 4.253 9.5 9.5s-4.253 9.5-9.5 9.5-9.5-4.253-9.5-9.5S6.753 2.5 12 2.5zm4.157 6.948c-.35-.353-.92-.354-1.273-.004l-3.988 3.963-2.293-2.287-.092-.08c-.353-.268-.859-.24-1.18.082-.352.352-.351.922 0 1.273l2.929 2.92.092.08c.352.268.856.242 1.178-.079l4.623-4.596.08-.091c.27-.352.245-.858-.076-1.181z" transform="translate(-1999 -3124) translate(863 3088) translate(1136 36)"/>
                </g>
            </g>
        </g>
    </g>
</svg>
