<svg xmlns="http://www.w3.org/2000/svg" width="24" height="24" viewBox="0 0 24 24">
    <g fill="none" fill-rule="evenodd">
        <g fill="#C1C1C1">
            <g>
                <path d="M12 5.3c4.022 0 7.724 2.43 9.833 6.395l.163.305-.163.305C19.724 16.27 16.02 18.7 12 18.7c-4.025 0-7.736-2.434-9.834-6.396L2.004 12l.161-.305C4.268 7.732 7.975 5.3 12 5.3zm0 2.95c-2.071 0-3.75 1.679-3.75 3.75 0 2.071 1.679 3.75 3.75 3.75 2.071 0 3.75-1.679 3.75-3.75 0-2.071-1.679-3.75-3.75-3.75zm0 1.4c1.298 0 2.35 1.052 2.35 2.35s-1.052 2.35-2.35 2.35S9.65 13.298 9.65 12 10.702 9.65 12 9.65z" transform="translate(-1083 -322) translate(1083 322)"/>
            </g>
        </g>
    </g>
</svg>
