<svg xmlns="http://www.w3.org/2000/svg" width="24" height="24" viewBox="0 0 24 24">
    <g fill="none" fill-rule="evenodd">
        <g fill="#C1C1C1">
            <g>
                <path d="M16 3.1H8C5.294 3.1 3.1 5.294 3.1 8v8c0 2.706 2.194 4.9 4.9 4.9h8c2.706 0 4.9-2.194 4.9-4.9V8c0-2.706-2.194-4.9-4.9-4.9zM8 4.9h8c1.712 0 3.1 1.388 3.1 3.1v8c0 1.712-1.388 3.1-3.1 3.1H8c-1.712 0-3.1-1.388-3.1-3.1V8c0-1.712 1.388-3.1 3.1-3.1z" transform="translate(-775 -704) translate(775 704)"/>
            </g>
        </g>
    </g>
</svg>
