<svg xmlns="http://www.w3.org/2000/svg" width="18" height="18" viewBox="0 0 18 18">
    <g fill="none" fill-rule="evenodd">
        <g fill="#3D3D3D">
            <g>
                <g>
                    <g>
                        <g>
                            <path d="M9 2.1c3.81 0 6.9 3.09 6.9 6.9 0 3.81-3.09 6.9-6.9 6.9-3.81 0-6.9-3.09-6.9-6.9 0-3.81 3.09-6.9 6.9-6.9zm0 1.8C6.183 3.9 3.9 6.183 3.9 9c0 2.817 2.283 5.1 5.1 5.1 2.817 0 5.1-2.283 5.1-5.1 0-2.817-2.283-5.1-5.1-5.1zm0 .6c.456 0 .832.339.892.778L9.9 5.4v3.131l1.42.994c.407.286.506.847.22 1.254-.263.376-.761.489-1.156.28l-.097-.06-1.803-1.262-.041-.03L8.4 9.67l.084.066c-.042-.03-.081-.062-.116-.096-.016-.016-.031-.032-.046-.05l-.02-.023-.045-.06-.029-.044-.023-.042c-.01-.018-.018-.035-.026-.053l-.021-.051-.013-.035-.019-.067c-.019-.077-.027-.155-.026-.233V5.4c0-.497.403-.9.9-.9z" transform="translate(-620 -453) translate(511 208) translate(0 193) translate(105 48) translate(4 4)"/>
                        </g>
                    </g>
                </g>
            </g>
        </g>
    </g>
</svg>
