<svg xmlns="http://www.w3.org/2000/svg" width="24" height="24" viewBox="0 0 24 24">
    <g fill="none" fill-rule="evenodd">
        <g fill="#C1C1C1">
            <g>
                <path d="M12 2.5c5.247 0 9.5 4.253 9.5 9.5s-4.253 9.5-9.5 9.5-9.5-4.253-9.5-9.5S6.753 2.5 12 2.5zm3.652 5.869c-.35-.352-.92-.354-1.273-.004L12 10.731 9.62 8.365c-.352-.35-.922-.348-1.272.004-.321.323-.347.829-.077 1.18l.08.093L10.724 12l-2.371 2.358-.081.092c-.27.352-.244.858.077 1.181.35.352.92.354 1.273.004L12 13.268l2.38 2.367c.352.35.922.348 1.272-.004.321-.323.347-.829.077-1.18l-.08-.093L13.275 12l2.372-2.358.081-.092c.27-.352.244-.858-.077-1.181z" transform="translate(-1082 -253) translate(1082 253)"/>
            </g>
        </g>
    </g>
</svg>
