<svg xmlns="http://www.w3.org/2000/svg" width="24" height="24" viewBox="0 0 24 24">
    <g fill="none" fill-rule="evenodd">
        <g fill="#EBEBEB">
            <g>
                <g>
                    <path d="M10.99 2.096c4.916 0 8.9 3.985 8.9 8.9 0 2.131-.748 4.087-1.997 5.62l3.753 3.751c.352.352.352.922 0 1.273-.322.322-.828.35-1.18.08l-.093-.08-3.752-3.751c-1.534 1.254-3.494 2.007-5.63 2.007-4.916 0-8.9-3.985-8.9-8.9 0-4.915 3.984-8.9 8.9-8.9zm0 1.8c-3.92 0-7.1 3.179-7.1 7.1s3.18 7.1 7.1 7.1c3.922 0 7.1-3.179 7.1-7.1s-3.178-7.1-7.1-7.1z" transform="translate(-1387 -28) translate(1375 16) translate(12 12)"/>
                </g>
            </g>
        </g>
    </g>
</svg>
