<svg xmlns="http://www.w3.org/2000/svg" width="18" height="18" viewBox="0 0 18 18">
    <g fill="none" fill-rule="evenodd">
        <g fill="#3D3D3D">
            <g>
                <g>
                    <g>
                        <path d="M8.236 2.085c3.396 0 6.149 2.753 6.149 6.149 0 1.374-.451 2.643-1.213 3.667l2.477 2.477c.351.352.351.922 0 1.273-.322.322-.828.35-1.18.08l-.093-.08-2.478-2.477c-1.023.76-2.29 1.208-3.662 1.208-3.396 0-6.148-2.752-6.148-6.148S4.84 2.085 8.236 2.085zm0 1.8c-2.401 0-4.348 1.947-4.348 4.349 0 2.401 1.947 4.348 4.348 4.348 2.402 0 4.349-1.947 4.349-4.348 0-2.402-1.947-4.349-4.349-4.349z" transform="translate(-519 -456) translate(511 345) translate(0 96) translate(8 15)"/>
                    </g>
                </g>
            </g>
        </g>
    </g>
</svg>
