<?xml version="1.0" encoding="UTF-8"?>
<svg width="56px" height="37px" viewBox="0 0 56 37" version="1.1" xmlns="http://www.w3.org/2000/svg" xmlns:xlink="http://www.w3.org/1999/xlink">
    <title>Logo/Symbol Logo/Color</title>
    <defs>
        <linearGradient x1="50.0073811%" y1="97.5717036%" x2="50.0073811%" y2="20.0055188%" id="linearGradient-1">
            <stop stop-color="#C43F4D" offset="0%"></stop>
            <stop stop-color="#EB6B60" offset="100%"></stop>
        </linearGradient>
        <linearGradient x1="50.0004863%" y1="97.5717036%" x2="50.0004863%" y2="20.0055188%" id="linearGradient-2">
            <stop stop-color="#C43F4D" offset="0%"></stop>
            <stop stop-color="#EB6B60" offset="100%"></stop>
        </linearGradient>
        <linearGradient x1="73.4397985%" y1="12.8662243%" x2="27.8747805%" y2="85.051407%" id="linearGradient-3">
            <stop stop-color="#E84656" offset="0%"></stop>
            <stop stop-color="#EB6B60" offset="100%"></stop>
        </linearGradient>
        <linearGradient x1="73.0253937%" y1="15.5053549%" x2="25.9260776%" y2="86.0625966%" id="linearGradient-4">
            <stop stop-color="#E84656" offset="0%"></stop>
            <stop stop-color="#EB6B60" offset="100%"></stop>
        </linearGradient>
        <linearGradient x1="73.4383261%" y1="12.8648769%" x2="27.8770037%" y2="85.0500701%" id="linearGradient-5">
            <stop stop-color="#E84656" offset="0%"></stop>
            <stop stop-color="#EB6B60" offset="100%"></stop>
        </linearGradient>
    </defs>
    <g id="Page-1" stroke="none" stroke-width="1" fill="none" fill-rule="evenodd">
        <g id="Group-2" transform="translate(0.000000, 0.000000)">
            <path d="M16.187,3.71 L16.187,32.53 C16.187,34.58 17.849,36.24 19.899,36.24 L19.899,36.24 C21.949,36.24 23.61,34.58 23.61,32.53 L23.61,32.53 L23.61,3.71 C23.61,1.66 21.949,-1.13686838e-13 19.899,-1.13686838e-13 L19.899,-1.13686838e-13 C17.849,-1.13686838e-13 16.187,1.66 16.187,3.71" id="Fill" fill="url(#linearGradient-1)"></path>
            <path d="M32.375,3.71 L32.375,32.53 C32.375,34.58 34.037,36.24 36.087,36.24 L36.087,36.24 C38.137,36.24 39.799,34.58 39.799,32.53 L39.799,32.53 L39.799,3.71 C39.799,1.66 38.137,-1.13686838e-13 36.087,-1.13686838e-13 L36.087,-1.13686838e-13 C34.037,-1.13686838e-13 32.375,1.66 32.375,3.71" id="Fill" fill="url(#linearGradient-2)"></path>
            <path d="M32.983,1.641 L16.659,30.68 C16.35,31.22 16.173,31.85 16.173,32.521 L16.173,32.521 C16.173,34.57 17.841,36.24 19.899,36.24 L19.899,36.24 C21.142,36.24 22.243,35.63 22.92,34.7 L22.92,34.7 L39.292,5.6 C39.614,5.05 39.799,4.41 39.799,3.73 L39.799,3.73 C39.799,1.67 38.131,-1.13686838e-13 36.073,-1.13686838e-13 L36.073,-1.13686838e-13 C34.787,-1.13686838e-13 33.653,0.65 32.983,1.641" id="Fill" fill="url(#linearGradient-3)"></path>
            <path d="M49.184,1.641 L32.86,30.68 C32.551,31.22 32.375,31.85 32.375,32.521 L32.375,32.521 C32.375,34.57 34.043,36.24 36.101,36.24 L36.101,36.24 C37.344,36.24 38.443,35.63 39.121,34.7 L39.121,34.7 L55.494,5.6 C55.816,5.05 56,4.41 56,3.73 L56,3.73 C56,1.67 54.332,-1.13686838e-13 52.274,-1.13686838e-13 L52.274,-1.13686838e-13 C50.988,-1.13686838e-13 49.854,0.65 49.184,1.641" id="Fill" fill="url(#linearGradient-4)"></path>
            <path d="M16.81,1.641 L0.485,30.68 C0.175,31.22 0,31.85 0,32.521 L0,32.521 C0,34.57 1.668,36.24 3.726,36.24 L3.726,36.24 C4.969,36.24 6.069,35.63 6.746,34.7 L6.746,34.7 L23.119,5.6 C23.441,5.05 23.625,4.41 23.625,3.73 L23.625,3.73 C23.625,1.67 21.957,-1.13686838e-13 19.899,-1.13686838e-13 L19.899,-1.13686838e-13 C18.613,-1.13686838e-13 17.479,0.65 16.81,1.641" id="Fill" fill="url(#linearGradient-5)"></path>
        </g>
    </g>
</svg>