<svg xmlns="http://www.w3.org/2000/svg" width="46" height="46" viewBox="0 0 46 46">
    <g fill="none" fill-rule="evenodd">
        <g>
            <g>
                <g transform="translate(-1319 -301) translate(376 252) translate(944 50)">
                    <circle cx="22" cy="22" r="22" stroke="#3B5998" stroke-linejoin="round"/>
                    <path fill="#3B5998" d="M23.848 13.06l-.218.004c-2.605.114-4.682 2.262-4.682 4.895v1.539h-1.601c-.498 0-.9.403-.9.9v3.194l.007.113c.055.443.434.787.893.787l1.601-.001v5.55c0 .497.403.9.9.9h3.39l.113-.007c.444-.056.787-.434.787-.893v-5.55h1.646c.406 0 .761-.271.868-.663l.87-3.193.022-.107c.08-.534-.334-1.03-.89-1.03h-2.516v-1.427h2.515c.498 0 .9-.403.9-.9V13.96c0-.497-.402-.9-.9-.9h-2.805zm1.905 1.799v1.412h-1.715c-.939 0-1.7.761-1.7 1.7v2.427l.007.113c.056.444.434.787.893.787h2.237l-.379 1.393h-1.858l-.113.008c-.444.055-.787.434-.787.893v5.548h-1.59v-5.548l-.007-.113c-.055-.444-.434-.787-.893-.787l-1.602-.001v-1.393h1.602c.497 0 .9-.403.9-.9V17.96c0-1.712 1.388-3.1 3.1-3.1h1.905z"/>
                </g>
            </g>
        </g>
    </g>
</svg>
