<svg xmlns="http://www.w3.org/2000/svg" width="24" height="24" viewBox="0 0 24 24">
    <g fill="none" fill-rule="evenodd">
        <g fill="#161616">
            <g>
                <g>
                    <g>
                        <g>
                            <path d="M16 3.1c2.706 0 4.9 2.194 4.9 4.9v8c0 2.706-2.194 4.9-4.9 4.9H8c-2.706 0-4.9-2.194-4.9-4.9V8c0-2.706 2.194-4.9 4.9-4.9zm0 1.8H8C6.288 4.9 4.9 6.288 4.9 8v8c0 1.712 1.388 3.1 3.1 3.1h8c1.712 0 3.1-1.388 3.1-3.1V8c0-1.712-1.388-3.1-3.1-3.1zm-4 2.526c2.526 0 4.574 2.048 4.574 4.574S14.526 16.574 12 16.574 7.426 14.526 7.426 12 9.474 7.426 12 7.426zm0 1.8c-1.532 0-2.774 1.242-2.774 2.774s1.242 2.774 2.774 2.774 2.774-1.242 2.774-2.774S13.532 9.226 12 9.226zm4.574-2.7c.497 0 .9.403.9.9s-.403.9-.9.9-.9-.403-.9-.9.403-.9.9-.9z" transform="translate(-1500 -701) translate(360 593) translate(0 80) translate(1128 16) translate(12 12)"/>
                        </g>
                    </g>
                </g>
            </g>
        </g>
    </g>
</svg>
