<svg xmlns="http://www.w3.org/2000/svg" width="44" height="44" viewBox="0 0 44 44">
    <defs>
        <linearGradient id="1al5ssh2xa" x1="91.676%" x2="0%" y1="4.853%" y2="104.565%">
            <stop offset="0%" stop-color="#6C52A3"/>
            <stop offset="48.741%" stop-color="#E70D5C"/>
            <stop offset="100%" stop-color="#FFA53C"/>
        </linearGradient>
    </defs>
    <g fill="none" fill-rule="evenodd">
        <g>
            <g>
                <g transform="translate(-1260 -379) translate(376 252) translate(884 127)">
                    <circle cx="22" cy="22" r="22" fill="url(#1al5ssh2xa)" opacity=".9"/>
                    <g fill="#FFF">
                        <path d="M16 3.1c2.706 0 4.9 2.194 4.9 4.9v8c0 2.706-2.194 4.9-4.9 4.9H8c-2.706 0-4.9-2.194-4.9-4.9V8c0-2.706 2.194-4.9 4.9-4.9zm0 1.8H8C6.288 4.9 4.9 6.288 4.9 8v8c0 1.712 1.388 3.1 3.1 3.1h8c1.712 0 3.1-1.388 3.1-3.1V8c0-1.712-1.388-3.1-3.1-3.1zm-4 2.526c2.526 0 4.574 2.048 4.574 4.574S14.526 16.574 12 16.574 7.426 14.526 7.426 12 9.474 7.426 12 7.426zm0 1.8c-1.532 0-2.774 1.242-2.774 2.774s1.242 2.774 2.774 2.774 2.774-1.242 2.774-2.774S13.532 9.226 12 9.226zm4.574-2.7c.497 0 .9.403.9.9s-.403.9-.9.9-.9-.403-.9-.9.403-.9.9-.9z" transform="translate(10 10)"/>
                    </g>
                </g>
            </g>
        </g>
    </g>
</svg>
