<svg xmlns="http://www.w3.org/2000/svg" width="46" height="46" viewBox="0 0 46 46">
    <g fill="none" fill-rule="evenodd">
        <g>
            <g>
                <g transform="translate(-1439 -301) translate(376 252) translate(1064 50)">
                    <circle cx="22" cy="22" r="22" stroke="#3D3D3D" stroke-linejoin="round"/>
                    <g fill="#3D3D3D">
                        <path d="M15.236 3.246h-2.492c-.497 0-.9.403-.9.9v10.801c0 .853-.691 1.544-1.544 1.544-.852 0-1.543-.691-1.543-1.544 0-.805.616-1.466 1.403-1.537l.14-.006c.497 0 .9-.403.9-.9V9.985c0-.497-.403-.9-.9-.9-3.455 0-5.982 2.535-5.982 5.862 0 3.376 2.404 5.807 5.982 5.807 3.474 0 5.843-2.623 5.815-5.814l-.003-.983.007-3.318.183.107c.795.443 1.62.633 2.543.569.472-.034.837-.426.837-.898V7.774c0-.402-.267-.756-.654-.865l-.397-.118c-1.434-.444-1.889-.854-2.306-2.13l-.11-.354-.11-.396c-.106-.393-.462-.665-.869-.665zm-1.593 1.799h.918l.014.043c.567 1.766 1.288 2.607 3.004 3.244l.303.106V9.45l-.054-.012c-.635-.17-1.246-.591-1.947-1.311-.559-.574-1.532-.187-1.545.614l-.018 2.168-.006 3.049.003.997c.02 2.227-1.581 4-4.015 4-2.58 0-4.182-1.622-4.182-4.008l.004-.21c.085-1.88 1.303-3.33 3.114-3.736l.164-.034v.759l-.156.049c-1.329.442-2.287 1.695-2.287 3.172 0 1.847 1.497 3.344 3.343 3.344l.184-.005c1.76-.096 3.16-1.554 3.16-3.339l-.001-9.902z" transform="translate(10 10)"/>
                    </g>
                </g>
            </g>
        </g>
    </g>
</svg>
