<svg xmlns="http://www.w3.org/2000/svg" width="46" height="46" viewBox="0 0 46 46">
    <g fill="none" fill-rule="evenodd">
        <g>
            <g>
                <g transform="translate(-1499 -301) translate(376 252) translate(1124 50)">
                    <circle cx="22" cy="22" r="22" stroke="#00ACEE" stroke-linejoin="round"/>
                    <path fill="#00ACEE" d="M23.61 14.674c-1.108.465-1.84 1.253-2.235 2.253l-.088.242c-.135.397-.206.773-.238 1.184l-.012.182-.22-.032c-.366-.062-.785-.167-1.21-.31-1.548-.525-2.88-1.43-3.669-2.653-.407-.63-1.361-.515-1.607.193-1.459 4.213-.616 7.262 1.728 9.308l.307.256c.138.109.277.212.419.31l.223.15-.057.024c-.264.106-.546.203-.834.288-.108.031-.24.063-.393.095l-.337.064-.396.064-.454.064-.511.062-.277.031c-.892.097-1.108 1.297-.307 1.7 4.203 2.11 8.079 2.049 11.5-.223l.299-.205c3.218-2.293 4.407-5.792 4.431-9.22v-.121l.176-.251c.835-1.22 1.18-2.12 1.205-2.739v-.058c.005-.706-.759-1.128-1.346-.788l-.091.06c-.088.066-.262.158-.486.26l-.293.127-.328.13-.168.062-.164.058-.222.073-.156-.12c-.092-.067-.181-.129-.284-.195-1.134-.731-2.435-.942-3.905-.325zm2.93 1.838l-.005-.002.051.044.198.15.09.062.2.132c.244.154.519.295.697.295l.106-.008.097-.015.236-.055.185-.053-.028.043c-.1.146-.208.298-.325.457-.102.137-.162.299-.175.467v.153l.005.17v.144c-.02 2.987-1.092 6.05-3.925 7.93l-.26.168c-1.919 1.19-3.986 1.558-6.242 1.095l-.283-.063.098-.033c1.374-.476 2.423-1.115 2.423-1.82l-.047-.222-.035-.143c-.017-.057-.034-.095-.058-.132l-.058-.076-.039-.046-.089-.089-.056-.047-.104-.074L19 24.83l-.447-.242c-.491-.273-.91-.553-1.31-.903l-.161-.144c-1.36-1.27-1.982-2.993-1.535-5.421l.043-.22.15.138c.926.82 2.058 1.442 3.289 1.86l.387.125.377.11c1.672.46 2.978.415 3.031-.765l.001-.244c-.006-.635.041-1.073.224-1.536.222-.564.612-.984 1.257-1.254.871-.366 1.563-.254 2.233.178z"/>
                </g>
            </g>
        </g>
    </g>
</svg>
