<svg xmlns="http://www.w3.org/2000/svg" width="46" height="46" viewBox="0 0 46 46">
    <g fill="none" fill-rule="evenodd">
        <g>
            <g>
                <g transform="translate(-1379 -301) translate(376 252) translate(1004 50)">
                    <circle cx="22" cy="22" r="22" stroke="#C4302B" stroke-linejoin="round"/>
                    <path fill="#C4302B" d="M27.54 14.838c2.154 0 3.9 1.746 3.9 3.9v6.524c0 2.154-1.746 3.9-3.9 3.9H16.46c-2.154 0-3.9-1.746-3.9-3.9v-6.524c0-2.154 1.746-3.9 3.9-3.9zm0 1.8H16.46c-1.16 0-2.1.94-2.1 2.1v6.524c0 1.16.94 2.1 2.1 2.1h11.08c1.16 0 2.1-.94 2.1-2.1v-6.524c0-1.16-.94-2.1-2.1-2.1zm-7.734 2.88c0-.71.784-1.14 1.383-.759l3.9 2.482c.556.353.556 1.165 0 1.518l-3.9 2.482c-.6.381-1.383-.05-1.383-.76zm1.8 1.64v1.683L22.93 22l-1.322-.84z"/>
                </g>
            </g>
        </g>
    </g>
</svg>
